<?xml version="1.0" encoding="UTF-8"?><svg id="Layer_1" xmlns="http://www.w3.org/2000/svg" viewBox="0 0 30 31.68"><defs><style>.cls-1{stroke-width:0px;}</style></defs><path class="cls-1" d="m15,1.25c.46,0,.88.16,1.19.45l11.38,10.64c.76.71,1.17,1.65,1.17,2.64v13.5c0,1.07-.93,1.94-2.08,1.94H3.33c-1.15,0-2.08-.87-2.08-1.94v-13.5c0-1,.42-1.94,1.17-2.64L13.81,1.7c.31-.29.74-.45,1.19-.45m0-1.25c-.74,0-1.49.26-2.05.79L1.57,11.43c-1,.94-1.57,2.22-1.57,3.56v13.5c0,1.76,1.49,3.19,3.33,3.19h23.33c1.84,0,3.33-1.43,3.33-3.19v-13.5c0-1.34-.57-2.62-1.57-3.56L17.05.79c-.56-.53-1.31-.79-2.05-.79h0Z"/></svg>