<?xml version="1.0" encoding="utf-8"?>
<!-- Generator: Adobe Illustrator 27.8.0, SVG Export Plug-In . SVG Version: 6.00 Build 0)  -->
<svg version="1.1" id="Layer_1" xmlns="http://www.w3.org/2000/svg" xmlns:xlink="http://www.w3.org/1999/xlink" x="0px" y="0px"
	 viewBox="0 0 25 25" style="enable-background:new 0 0 25 25;" xml:space="preserve">
<style type="text/css">
	.st0{fill:#1E1E1E;}
	.st1{fill:#C8C8C8;}
	.st2{fill:none;stroke:#C8C8C8;stroke-miterlimit:10;}
	.st3{display:none;}
	.st4{display:inline;fill:none;stroke:#636466;stroke-miterlimit:10;}
</style>
<path class="st0" d="M4.3,24.5c-2.1,0-3.8-1.7-3.8-3.9V4.3c0-2.1,1.7-3.8,3.8-3.8h16.3c2.1,0,3.9,1.7,3.9,3.8v16.3
	c0,2.1-1.7,3.9-3.9,3.9H4.3z"/>
<path class="st1" d="M20.6,1C22.5,1,24,2.5,24,4.3v16.3c0,1.9-1.5,3.4-3.4,3.4H4.3C2.5,24,1,22.5,1,20.6V4.3C1,2.5,2.5,1,4.3,1H20.6
	 M20.6,0H4.3C2,0,0,2,0,4.3v16.3C0,23,2,25,4.3,25h16.3c2.4,0,4.4-2,4.4-4.4V4.3C25,2,23,0,20.6,0L20.6,0z"/>
<line class="st2" x1="3.9" y1="20.2" x2="21.1" y2="20.2"/>
<g class="st3">
	<line class="st4" x1="3.9" y1="16.2" x2="21.1" y2="16.2"/>
</g>
</svg>
