<?xml version="1.0" encoding="UTF-8"?><svg id="Layer_1" xmlns="http://www.w3.org/2000/svg" viewBox="0 0 32 18"><defs><style>.cls-1{fill:#969696;stroke-width:0px;}</style></defs><path class="cls-1" d="m29,1.6c.77,0,1.4.63,1.4,1.4v12c0,.77-.63,1.4-1.4,1.4H3c-.77,0-1.4-.63-1.4-1.4V3c0-.77.63-1.4,1.4-1.4h26m0-1.6H3C1.35,0,0,1.35,0,3v12c0,1.65,1.35,3,3,3h26c1.65,0,3-1.35,3-3V3c0-1.65-1.35-3-3-3h0Z"/><path class="cls-1" d="m28.1,2.91h-10.53c-.45,0-.82.37-.82.82v10.53c0,.45.37.82.82.82h10.53c.45,0,.82-.37.82-.82V3.73c0-.45-.37-.82-.82-.82Zm-5.71,9.98c-1.68,0-3.09-1.06-3.64-2.55.34.13.71.21,1.1.21,1.71,0,3.1-1.39,3.1-3.1,0-.93-.42-1.75-1.06-2.32.17-.02.33-.05.51-.05,2.15,0,3.9,1.75,3.9,3.9s-1.75,3.9-3.9,3.9Z"/></svg>