<?xml version="1.0" encoding="UTF-8"?><svg id="Layer_1" xmlns="http://www.w3.org/2000/svg" viewBox="0 0 32 18"><defs><style>.cls-1{fill:#fff;}.cls-1,.cls-2{stroke-width:0px;}.cls-2{fill:#969696;}</style></defs><rect class="cls-2" x="0" y="0" width="32" height="18" rx="3" ry="3"/><path class="cls-1" d="m16,16.2H3.6c-.99,0-1.8-.81-1.8-1.8V3.6c0-.99.81-1.8,1.8-1.8h12.4s0,14.4,0,14.4Z"/><path class="cls-1" d="m28.24,2.84c.5,0,.92.35.92.76v10.8c0,.41-.42.76-.92.76h-12.45V2.84h12.45m0-1.04h-13.5v14.4h13.5c1.08,0,1.96-.81,1.96-1.8V3.6c0-.99-.88-1.8-1.96-1.8h0Z"/><path class="cls-1" d="m16.18,12.7c1.99,0,3.6-1.61,3.6-3.6s-1.61-3.6-3.6-3.6"/><path class="cls-2" d="m16.16,12.7c-1.99,0-3.6-1.61-3.6-3.6s1.61-3.6,3.6-3.6"/></svg>